<svg xmlns:dc="http://purl.org/dc/elements/1.1/" xmlns:cc="http://creativecommons.org/ns#" xmlns:rdf="http://www.w3.org/1999/02/22-rdf-syntax-ns#" xmlns:svg="http://www.w3.org/2000/svg" xmlns="http://www.w3.org/2000/svg" id="svg75057" version="1.1" viewBox="262.2 193.1 500.71 73.67">
  <metadata id="metadata75063">
    <rdf:RDF>
      <cc:Work rdf:about="">
        <dc:format>image/svg+xml</dc:format>
        <dc:type rdf:resource="http://purl.org/dc/dcmitype/StillImage"/>
      </cc:Work>
    </rdf:RDF>
  </metadata>
  <defs id="defs75061"/>
  <style id="style75054">
    #title &gt; path {
        fill: #9aafd4;
    }
    .c1{
    fill: #9aafd4;
    }
    .c2{
    fill: #a4bdd8;
    }
    .c3{
    fill: #bdd2e5;
    }
    </style>
  <g id="title" style="font-style:normal;font-weight:normal;font-size:106px;line-height:1;font-family:'Brandmark Serif 6';font-variant-ligatures:none;text-align:left;dominant-baseline:middle;text-anchor:middle" aria-label="her closet">
    <path id="path75065" style="font-style:normal;font-weight:normal;font-size:106px;line-height:1;font-family:'Brandmark Serif 6';font-variant-ligatures:none;text-align:left;dominant-baseline:middle;text-anchor:middle" d="m 321.97927,264.751 c -3.074,0 -5.512,-2.544 -5.512,-5.618 v -28.408 c 0,0 0,-17.384 -17.49,-17.384 -9.752,0 -16.43,7.208 -19.398,11.13 v -31.376 h -16.854 c -0.318,0 -0.53,0.212 -0.53,0.53 0,0.318 0.212,0.53 0.53,0.53 3.074,0 5.618,2.544 5.618,5.618 v 59.36 c 0,3.074 -2.544,5.618 -5.618,5.618 -0.318,0 -0.53,0.212 -0.53,0.53 0,0.318 0.212,0.53 0.53,0.53 h 22.472 c 0.212,0 0.53,-0.212 0.53,-0.53 0,-0.318 -0.318,-0.53 -0.53,-0.53 -3.074,0 -5.618,-2.544 -5.618,-5.618 v -31.058 c 2.862,-4.664 10.07,-12.19 15.264,-12.19 4.24,0 10.282,3.922 10.282,14.84 v 28.408 c 0,3.074 -2.438,5.618 -5.512,5.618 -0.318,0 -0.53,0.212 -0.53,0.53 0,0.318 0.212,0.53 0.53,0.53 h 22.366 c 0.318,0 0.53,-0.212 0.53,-0.53 0,-0.318 -0.212,-0.53 -0.53,-0.53 z"/>
    <path id="path75067" style="font-style:normal;font-weight:normal;font-size:106px;line-height:1;font-family:'Brandmark Serif 6';font-variant-ligatures:none;text-align:left;dominant-baseline:middle;text-anchor:middle" d="m 360.8763,261.571 c -8.374,0 -19.08,-5.83 -19.08,-24.168 0,-1.484 0.106,-2.968 0.212,-4.24 h 34.026 c 0,-8.48 -1.166,-19.822 -19.61,-19.822 -14.84,0 -25.97,10.706 -25.97,27.666 0,17.066 10.176,25.652 23.108,25.652 12.932,0 20.246,-8.798 22.79,-13.25 l -1.59,-1.378 c 0,0 -5.618,9.54 -13.886,9.54 z m -4.452,-45.686 c 5.724,0 8.162,4.346 8.48,15.158 h -22.472 c 2.014,-10.176 8.904,-15.158 13.992,-15.158 z"/>
    <path id="path75069" style="font-style:normal;font-weight:normal;font-size:106px;line-height:1;font-family:'Brandmark Serif 6';font-variant-ligatures:none;text-align:left;dominant-baseline:middle;text-anchor:middle" d="m 414.24564,213.341 c -6.678,0 -10.918,3.71 -12.614,7.632 v -6.784 h -16.854 c -0.318,0 -0.53,0.318 -0.53,0.53 0,0.318 0.212,0.636 0.53,0.636 3.074,0 5.618,2.438 5.618,5.512 v 38.266 c 0,3.074 -2.544,5.618 -5.618,5.618 -0.318,0 -0.53,0.212 -0.53,0.53 0,0.318 0.212,0.53 0.53,0.53 h 22.472 c 0.318,0 0.53,-0.212 0.53,-0.53 0,-0.318 -0.212,-0.53 -0.53,-0.53 -3.074,0 -5.618,-2.544 -5.618,-5.618 v -32.754 c 0.212,-1.272 1.696,-9.328 7.844,-9.328 4.876,0 9.858,7.632 4.558,15.158 0,0 10.388,0 10.388,-9.328 0,-9.328 -10.176,-9.54 -10.176,-9.54 z"/>
    <path id="path75071" style="font-style:normal;font-weight:normal;font-size:106px;line-height:1;font-family:'Brandmark Serif 6';font-variant-ligatures:none;text-align:left;dominant-baseline:middle;text-anchor:middle" d="m 503.93489,261.571 c -8.374,0 -19.08,-5.83 -19.08,-24.168 0,-14.416 8.586,-21.518 14.628,-21.518 5.83,0 13.356,6.36 8.48,17.066 0,0 9.858,-0.106 9.858,-9.752 0,-9.646 -18.338,-9.858 -18.338,-9.858 -14.84,0 -25.97,10.706 -25.97,27.666 0,17.066 10.176,25.652 23.108,25.652 12.932,0 20.246,-8.798 22.79,-13.25 l -1.59,-1.378 c 0,0 -5.618,9.54 -13.886,9.54 z"/>
    <path id="path75073" style="font-style:normal;font-weight:normal;font-size:106px;line-height:1;font-family:'Brandmark Serif 6';font-variant-ligatures:none;text-align:left;dominant-baseline:middle;text-anchor:middle" d="m 525.95308,193.625 c 0,0.318 0.212,0.53 0.53,0.53 3.074,0 5.512,2.544 5.512,5.618 v 60.102 c -0.318,2.756 -2.65,4.876 -5.512,4.876 -0.318,0 -0.53,0.212 -0.53,0.53 0,0.318 0.212,0.53 0.53,0.53 h 22.366 c 0.318,0 0.53,-0.212 0.53,-0.53 0,-0.318 -0.212,-0.53 -0.53,-0.53 -2.862,0 -5.088,-2.12 -5.512,-4.77 v -66.886 h -16.854 c -0.318,0 -0.53,0.212 -0.53,0.53 z"/>
    <path id="path75075" style="font-style:normal;font-weight:normal;font-size:106px;line-height:1;font-family:'Brandmark Serif 6';font-variant-ligatures:none;text-align:left;dominant-baseline:middle;text-anchor:middle" d="m 584.80958,213.341 c -15.264,0 -27.666,11.978 -27.666,26.712 0,14.628 12.402,26.606 27.666,26.606 15.264,0 27.666,-11.978 27.666,-26.606 0,-14.734 -12.402,-26.712 -27.666,-26.712 z m 0,50.774 c -9.01,0 -16.324,-10.812 -16.324,-24.062 0,-13.356 7.314,-24.168 16.324,-24.168 9.01,0 16.324,10.812 16.324,24.168 0,13.25 -7.314,24.062 -16.324,24.062 z"/>
    <path id="path75077" style="font-style:normal;font-weight:normal;font-size:106px;line-height:1;font-family:'Brandmark Serif 6';font-variant-ligatures:none;text-align:left;dominant-baseline:middle;text-anchor:middle" d="m 632.43339,224.259 c 0,-4.028 3.286,-8.374 9.646,-8.374 4.77,0 11.766,4.982 11.66,14.204 0,0 6.89,-1.378 6.89,-6.148 0,-4.876 -6.466,-10.6 -17.49,-10.6 -11.13,0 -19.716,5.724 -19.716,13.992 0,16.218 28.832,16.96 28.832,28.938 0,3.71 -2.65,7.844 -10.6,7.844 -7.95,0 -12.614,-6.89 -12.296,-16.112 0,0 -6.784,3.498 -6.784,8.48 0,4.876 5.3,10.282 17.596,10.282 12.296,0 22.79,-5.088 22.79,-14.734 0,-17.066 -30.528,-18.02 -30.528,-27.772 z"/>
    <path id="path75079" style="font-style:normal;font-weight:normal;font-size:106px;line-height:1;font-family:'Brandmark Serif 6';font-variant-ligatures:none;text-align:left;dominant-baseline:middle;text-anchor:middle" d="m 703.92708,261.571 c -8.374,0 -19.08,-5.83 -19.08,-24.168 0,-1.484 0.106,-2.968 0.212,-4.24 h 34.026 c 0,-8.48 -1.166,-19.822 -19.61,-19.822 -14.84,0 -25.97,10.706 -25.97,27.666 0,17.066 10.176,25.652 23.108,25.652 12.932,0 20.246,-8.798 22.79,-13.25 l -1.59,-1.378 c 0,0 -5.618,9.54 -13.886,9.54 z m -4.452,-45.686 c 5.724,0 8.162,4.346 8.48,15.158 h -22.472 c 2.014,-10.176 8.904,-15.158 13.992,-15.158 z"/>
    <path id="path75081" style="font-style:normal;font-weight:normal;font-size:106px;line-height:1;font-family:'Brandmark Serif 6';font-variant-ligatures:none;text-align:left;dominant-baseline:middle;text-anchor:middle" d="m 755.48945,264.115 c -5.512,0 -9.964,-4.452 -9.964,-9.858 v -37.948 h 10.494 v -2.12 h -10.494 v -14.416 h -2.12 c -1.272,8.268 -8.586,14.416 -17.172,14.416 v 2.12 h 8.056 v 32.33 c 0,9.964 8.056,18.02 18.02,18.02 3.922,0 7.632,-1.272 10.6,-3.498 l -0.954,-1.484 c -1.802,1.59 -4.028,2.438 -6.466,2.438 z"/>
  </g>
</svg>